<svg xmlns="http://www.w3.org/2000/svg" viewBox="0 0 60 60"><path d="M54.07 1H15.93C12.66 1 10 3.66 10 6.93V13h34.07c4.372 0 7.93 3.557 7.93 7.929V34h2.07c3.27 0 5.93-2.66 5.93-5.93V6.93C60 3.66 57.34 1 54.07 1z"/><path d="M44.07 15H5.93C2.66 15 0 17.66 0 20.929V42.07C0 45.34 2.66 48 5.93 48H12v10a1 1 0 0 0 1.74.673L23.442 48H44.07c3.27 0 5.93-2.66 5.93-5.93V20.929A5.936 5.936 0 0 0 44.07 15zM12 25.015h14a1 1 0 1 1 0 2H12a1 1 0 1 1 0-2zm27 14H12a1 1 0 1 1 0-2h27a1 1 0 1 1 0 2zm0-6H12a1 1 0 1 1 0-2h27a1 1 0 1 1 0 2z"/></svg>