<svg xmlns="http://www.w3.org/2000/svg" viewBox="-75 1 511 511.999"><path d="M340.55 70.258h-13.49c.578 2.629.89 5.355.89 8.156v41.777c0 23.832-19.39 43.223-43.226 43.223H77.082c-23.836 0-43.227-19.39-43.227-43.226V78.41c0-2.8.31-5.523.887-8.152H21.25C9.79 70.258.5 79.547.5 91.008v400.238C.5 502.707 9.79 512 21.25 512h319.3c11.462 0 20.755-9.293 20.755-20.754V91.012c0-11.461-9.293-20.754-20.754-20.754zm-53.23 352.937H74.484c-8.304 0-15.035-6.73-15.035-15.035 0-8.3 6.73-15.031 15.035-15.031H287.32c8.305 0 15.035 6.73 15.035 15.031 0 8.305-6.73 15.035-15.035 15.035zm0-63.39H74.484c-8.304 0-15.035-6.73-15.035-15.035 0-8.301 6.73-15.036 15.035-15.036H287.32c8.305 0 15.035 6.735 15.035 15.036 0 8.304-6.73 15.035-15.035 15.035zm0-63.395H74.484c-8.304 0-15.035-6.73-15.035-15.031 0-8.305 6.73-15.035 15.035-15.035H287.32c8.305 0 15.035 6.73 15.035 15.035 0 8.3-6.73 15.031-15.035 15.031zm0-63.39H74.484c-8.304 0-15.035-6.73-15.035-15.036 0-8.3 6.73-15.035 15.035-15.035H287.32c8.305 0 15.035 6.735 15.035 15.035 0 8.305-6.73 15.036-15.035 15.036zm0 0"/><path d="M77.082 133.348h207.64c7.27 0 13.16-5.891 13.16-13.157V78.414a8.08 8.08 0 0 0-8.077-8.082l-45.543-.703v-6.234a63.92 63.92 0 0 0-.54-8.168 63.065 63.065 0 0 0-3.855-15.036C230.602 16.656 207.695 0 180.91 0h-.36c-26.667.148-49.398 16.773-58.609 40.191a62.886 62.886 0 0 0-3.859 15.036 63.981 63.981 0 0 0-.539 8.168v6.937H72a8.079 8.079 0 0 0-8.078 8.078v41.778c0 7.269 5.894 13.16 13.16 13.16zm103.82-84.899c8.32 0 15.063 6.746 15.063 15.067s-6.742 15.066-15.063 15.066c-8.32 0-15.066-6.746-15.066-15.066s6.746-15.067 15.066-15.067zm0 0"/></svg>