<svg xmlns="http://www.w3.org/2000/svg" viewBox="1 1 512 512"><path d="M469.332 0H42.668C19.113.027.028 19.113 0 42.668v426.664c.027 23.555 19.113 42.64 42.668 42.668h426.664c23.555-.027 42.64-19.113 42.668-42.668V42.668C511.973 19.113 492.887.028 469.332 0zM42.668 17.066h426.664c14.14 0 25.602 11.461 25.602 25.602v25.598H17.066V42.668c0-14.14 11.461-25.602 25.602-25.602zm426.664 477.868H42.668c-14.14 0-25.602-11.461-25.602-25.602v-384h477.868v384c0 14.14-11.461 25.602-25.602 25.602zm0 0"/><path d="M42.668 34.133h17.066v17.066H42.668zm34.133 0h17.066v17.066H76.801zm34.133 0H128v17.066h-17.066zm249.07 143.07c-54.734-50.457-137.781-54.371-197.016-9.285-3.797 2.91-7.484 5.973-11.027 9.285-62.578 57.223-66.922 154.344-9.7 216.922 53.759 58.79 143.544 66.7 206.755 18.223 3.796-2.91 7.48-5.973 11.023-9.285 62.363-57.317 66.457-154.34 9.137-216.704a152.774 152.774 0 0 0-9.137-9.14zm-6.34 207.992a153.133 153.133 0 0 0-24.117-16.402 251.433 251.433 0 0 0 11.555-70.125h50.988a136.368 136.368 0 0 1-38.426 86.527zm-13.902 12.621c-1.313 1.032-2.668 1.98-4.02 2.961-1.945 1.407-3.898 2.79-5.902 4.086-1.442.93-2.91 1.801-4.38 2.68-2.01 1.195-4.034 2.348-6.108 3.414-1.52.8-3.063 1.57-4.618 2.313a130.133 130.133 0 0 1-6.355 2.84c-1.453.597-2.91 1.195-4.379 1.706a135.433 135.433 0 0 0 19.523-32.964 135.081 135.081 0 0 1 17.536 11.855c-.442.375-.852.766-1.297 1.11zm-142.504 15.461a138.211 138.211 0 0 1-4.567-2.285 135.187 135.187 0 0 1-6.18-3.48c-1.44-.856-2.882-1.707-4.265-2.63-2.031-1.316-4.012-2.722-5.973-4.148-1.332-.964-2.671-1.902-3.968-2.918-.446-.34-.852-.734-1.297-1.082a134.814 134.814 0 0 1 17.469-11.879A135.4 135.4 0 0 0 208 417.844c-1.457-.547-2.91-1.133-4.352-1.707-2.16-.903-4.3-1.852-6.418-2.86zM158.336 195.07a153.133 153.133 0 0 0 24.117 16.403 251.46 251.46 0 0 0-11.555 70.129H119.91a136.369 136.369 0 0 1 38.426-86.532zm13.902-12.617c1.313-1.035 2.668-1.98 4.02-2.965 1.945-1.406 3.898-2.789 5.91-4.086 1.434-.93 2.902-1.8 4.363-2.672 2.012-1.19 4.043-2.351 6.117-3.41 1.52-.804 3.063-1.57 4.618-2.312 2.09-1.008 4.214-1.95 6.355-2.844 1.453-.598 2.91-1.195 4.379-1.707a135.46 135.46 0 0 0-19.523 32.957 134.967 134.967 0 0 1-17.54-11.851c.446-.38.856-.77 1.301-1.11zm142.504-15.465c1.54.735 3.059 1.496 4.567 2.29a131.234 131.234 0 0 1 6.18 3.48c1.44.851 2.882 1.707 4.265 2.629 2.031 1.312 4.012 2.718 5.973 4.144 1.332.965 2.671 1.903 3.968 2.918.446.344.852.735 1.297 1.086a135.208 135.208 0 0 1-17.469 11.88A135.424 135.424 0 0 0 304 162.421c1.457.547 2.91 1.137 4.352 1.707 2.16.906 4.3 1.851 6.418 2.86zm-67.273 45.989a135.902 135.902 0 0 1-43.524-10.047c10.864-25.735 26.293-43.563 43.524-48.086zm0 17.066v51.559h-59.512a237.05 237.05 0 0 1 10.238-62.579A152.762 152.762 0 0 0 247.47 230zm0 68.625v51.602a152.804 152.804 0 0 0-49.317 10.972 237.156 237.156 0 0 1-10.195-62.574zm0 68.625v58.129c-17.203-4.524-32.633-22.348-43.524-48.086a135.793 135.793 0 0 1 43.524-10.043zm17.062 0a135.793 135.793 0 0 1 43.524 10.043c-10.864 25.738-26.293 43.52-43.524 48.086zm0-17.066v-51.559h59.512a237.156 237.156 0 0 1-10.195 62.574 152.804 152.804 0 0 0-49.317-10.972zm0-68.625V230a152.81 152.81 0 0 0 49.317-10.977 237.156 237.156 0 0 1 10.195 62.575h-59.512zm0-68.625v-58.13c17.203 4.52 32.633 22.348 43.524 48.087a136 136 0 0 1-43.524 10.043zm-93.633 85.691a251.433 251.433 0 0 0 11.555 70.125 152.773 152.773 0 0 0-24.117 16.402 136.31 136.31 0 0 1-38.426-86.527zm170.204-17.066a251.46 251.46 0 0 0-11.555-70.13 152.773 152.773 0 0 0 24.117-16.402 136.318 136.318 0 0 1 38.426 86.528h-50.988zm0 0"/></svg>